<?xml version="1.0" encoding="UTF-8" standalone="no"?>
<!DOCTYPE svg PUBLIC "-//W3C//DTD SVG 1.1//EN" "http://www.w3.org/Graphics/SVG/1.1/DTD/svg11.dtd">
<svg width="100%" height="100%" viewBox="0 0 128 128" version="1.1" xmlns="http://www.w3.org/2000/svg" xmlns:xlink="http://www.w3.org/1999/xlink" xml:space="preserve" xmlns:serif="http://www.serif.com/" style="fill-rule:evenodd;clip-rule:evenodd;stroke-linecap:round;stroke-linejoin:round;stroke-miterlimit:1.5;">
    <g transform="matrix(1,0,0,1,-1.29745e-11,5.42251)">
        <path d="M59.452,9.959C60.265,8.179 62.042,7.036 64,7.036C65.958,7.036 67.735,8.179 68.548,9.959C73.988,21.871 82.369,40.223 82.369,40.223C82.369,40.223 100.422,41.922 112.996,43.106C115.002,43.294 116.698,44.668 117.299,46.591C117.901,48.513 117.29,50.609 115.75,51.907C105.794,60.297 91.249,72.554 91.249,72.554C91.249,72.554 95.712,91.155 98.782,103.952C99.254,105.923 98.49,107.985 96.847,109.172C95.204,110.359 93.007,110.436 91.284,109.368C80.148,102.461 64,92.446 64,92.446C64,92.446 47.852,102.461 36.716,109.368C34.993,110.436 32.796,110.359 31.153,109.172C29.51,107.985 28.746,105.923 29.218,103.952C32.288,91.155 36.751,72.554 36.751,72.554C36.751,72.554 22.206,60.297 12.25,51.907C10.71,50.609 10.099,48.513 10.701,46.591C11.302,44.668 12.998,43.294 15.004,43.106C27.578,41.922 45.631,40.223 45.631,40.223C45.631,40.223 54.012,21.871 59.452,9.959Z" style="fill:rgb(255,204,50);stroke:rgb(154,98,36);stroke-width:1px;"/>
    </g>
</svg>
