<?xml version="1.0" encoding="UTF-8" standalone="no"?>
<!DOCTYPE svg PUBLIC "-//W3C//DTD SVG 1.1//EN" "http://www.w3.org/Graphics/SVG/1.1/DTD/svg11.dtd">
<svg width="100%" height="100%" viewBox="0 0 128 128" version="1.1" xmlns="http://www.w3.org/2000/svg" xmlns:xlink="http://www.w3.org/1999/xlink" xml:space="preserve" xmlns:serif="http://www.serif.com/" style="fill-rule:evenodd;clip-rule:evenodd;stroke-linejoin:round;stroke-miterlimit:2;">
    <g transform="matrix(0.962171,0,0,1,14.4211,2.13163e-14)">
        <path d="M65.559,13.5C65.559,9.92 64.081,6.486 61.449,3.954C58.818,1.422 55.249,-0 51.528,-0L51.528,0C43.779,0 37.497,6.044 37.497,13.5L37.497,114.5C37.497,118.08 38.976,121.514 41.607,124.046C44.238,126.578 47.807,128 51.528,128L51.528,128C59.277,128 65.559,121.956 65.559,114.5L65.559,13.5Z" style="fill:rgb(59,67,84);"/>
    </g>
    <g transform="matrix(5.8916e-17,0.962171,-1,6.12323e-17,128,14.4211)">
        <path d="M65.559,13.5C65.559,9.92 64.081,6.486 61.449,3.954C58.818,1.422 55.249,-0 51.528,-0L51.526,0C43.778,0 37.497,6.043 37.497,13.498C37.497,38.088 37.497,89.909 37.497,114.5C37.497,118.08 38.976,121.514 41.607,124.046C44.238,126.578 47.807,128 51.528,128L51.53,128C59.278,128 65.559,121.957 65.559,114.502C65.559,89.912 65.559,38.091 65.559,13.5Z" style="fill:rgb(59,67,84);"/>
    </g>
</svg>
